<svg width="19" height="12" viewBox="0 0 8 7" fill="none" xmlns="http://www.w3.org/2000/svg">
<path d="M1.38591 5.95255H1.76663L4.65309 3.05723L4.27236 2.6765L1.38591 5.57182V5.95255ZM6.41507 2.55255L4.78591 0.914525L4.97184 0.719734C5.20205 0.483623 5.4721 0.364091 5.782 0.36114C6.0919 0.358189 6.3649 0.471817 6.60101 0.702025L6.82236 0.92338C7.01125 1.10046 7.09684 1.31001 7.07913 1.55203C7.06143 1.79404 6.96993 1.99769 6.80466 2.16296L6.41507 2.55255ZM5.90153 3.06609L2.13851 6.82911H0.500488V5.19994L4.26351 1.43692L5.90153 3.06609ZM4.47601 2.8713L4.27236 2.6765L4.65309 3.05723L4.47601 2.8713Z" fill="#1C1B1F"/>
</svg>
