<svg width="23" height="24" viewBox="0 0 23 24" fill="none" xmlns="http://www.w3.org/2000/svg">
<path d="M11.5 14.2102L3.07733 22.6329C2.77117 22.939 2.40281 23.0921 1.97225 23.0921C1.5417 23.0921 1.17335 22.939 0.867209 22.6329C0.561042 22.3267 0.407959 21.9584 0.407959 21.5278C0.407959 21.0973 0.561042 20.7289 0.867209 20.4228L9.28992 12L0.867209 3.57733C0.561042 3.27117 0.407959 2.90281 0.407959 2.47225C0.407959 2.0417 0.561042 1.67335 0.867209 1.36721C1.17335 1.06104 1.5417 0.907959 1.97225 0.907959C2.40281 0.907959 2.77117 1.06104 3.07733 1.36721L11.5 9.78992L19.9228 1.36721C20.2289 1.06104 20.5973 0.907959 21.0278 0.907959C21.4584 0.907959 21.8267 1.06104 22.1329 1.36721C22.439 1.67335 22.5921 2.0417 22.5921 2.47225C22.5921 2.90281 22.439 3.27117 22.1329 3.57733L13.7102 12L22.1329 20.4228C22.439 20.7289 22.5921 21.0973 22.5921 21.5278C22.5921 21.9584 22.439 22.3267 22.1329 22.6329C21.8267 22.939 21.4584 23.0921 21.0278 23.0921C20.5973 23.0921 20.2289 22.939 19.9228 22.6329L11.5 14.2102Z" fill="url(#paint0_linear_360_15)"/>
<defs>
<linearGradient id="paint0_linear_360_15" x1="11.5" y1="0.907959" x2="11.5" y2="23.0921" gradientUnits="userSpaceOnUse">
<stop stop-color="#EAEAEA"/>
<stop offset="1" stop-color="#DADADA"/>
</linearGradient>
</defs>
</svg>
