<svg width="87" height="37" viewBox="0 0 87 37" fill="none" xmlns="http://www.w3.org/2000/svg">
<g clip-path="url(#clip0_1_9)">
<path fill-rule="evenodd" clip-rule="evenodd" d="M86.983 11.4399C86.983 17.4187 86.9869 22.3066 86.9917 22.3018C87.003 22.2905 87.003 0.589257 86.9917 0.577961C86.9869 0.573209 86.983 5.46108 86.983 11.4399ZM82.2768 6.62043C82.2768 9.94079 82.2787 11.2966 82.2811 9.63334C82.2835 7.97008 82.2835 5.25342 82.2811 3.59632C82.2787 1.93922 82.2768 3.30006 82.2768 6.62043ZM82.2765 20.9266C82.2765 21.6893 82.2786 21.9988 82.2811 21.6145C82.2836 21.2301 82.2836 20.6061 82.2811 20.2278C82.2786 19.8495 82.2765 20.164 82.2765 20.9266ZM0.00561162 25.9448C0.163975 31.569 4.35046 36.2055 9.8871 36.8885C14.3283 37.4363 18.234 35.8061 20.8423 32.3158C22.2146 30.4795 22.9251 28.3766 23.0065 25.911L23.0183 25.5516H20.6585H18.2988V25.6745C18.2988 29.0661 15.8719 31.8902 12.5642 32.3478C8.36606 32.9286 4.86069 30.0369 4.72021 25.8772L4.70922 25.5516H2.35188H-0.00546265L0.00561162 25.9448Z" fill="#65B2F0"/>
<path fill-rule="evenodd" clip-rule="evenodd" d="M10.9132 0.0283106C5.22006 0.30855 0.703117 4.48404 0.0775817 10.0448C-0.817687 18.0034 5.98639 24.1859 13.9403 22.6412C18.4317 21.7689 22.0677 18.0434 22.8341 13.5283C24.102 6.05907 18.4491 -0.34262 10.9132 0.0283106ZM35.0035 0.0357173C29.5559 0.342236 25.1276 4.35464 24.3625 9.67736C23.1901 17.8335 30.1805 24.2978 38.3444 22.607C42.6622 21.7127 46.2156 18.0877 47.035 13.7415C48.4667 6.14674 42.7211 -0.398508 35.0035 0.0357173ZM56.1515 0.0274143C51.306 0.303832 48.2507 3.44028 48.7983 7.57587C49.1822 10.4751 51.2234 12.0433 56.3126 13.3487C59.286 14.1114 60.4741 14.9247 60.4659 16.1917C60.4554 17.7947 59.0959 18.6266 56.5924 18.562C54.2835 18.5023 52.7904 17.5608 52.0288 15.6844C51.976 15.5542 51.9294 15.4477 51.9254 15.4477C51.8968 15.4477 47.8924 17.7826 47.8924 17.7993C47.8924 17.8109 47.9601 17.9562 48.0427 18.1222C49.5623 21.1716 52.6758 22.8627 56.7705 22.8627C62.3715 22.8627 65.9148 19.5683 65.1895 15.0349C64.7379 12.2117 62.4716 10.4826 57.8728 9.45244C56.5946 9.16611 55.0583 8.54321 54.3884 8.03969C52.8657 6.89516 53.4612 4.93103 55.4856 4.42039C57.674 3.86841 59.7876 4.71821 60.7078 6.51995C60.7715 6.64473 60.8284 6.74503 60.8341 6.74281C60.8753 6.72702 64.7825 4.53839 64.783 4.53088C64.7864 4.47847 64.3008 3.72303 64.07 3.42171C62.5573 1.44622 60.3614 0.29859 57.6184 0.0499559C57.416 0.0316081 56.3619 0.0154248 56.1515 0.0274143ZM67.1652 0.597262C67.1459 0.647418 67.1693 14.5495 67.1891 14.7797C67.6284 19.8924 70.7024 22.8629 75.5539 22.8629C78.5269 22.8629 80.743 21.7976 82.185 19.6753L82.2769 19.54L82.2812 20.9224L82.2856 22.3048H84.6343H86.983V11.4399V0.574957H84.6342H82.2854L82.2852 6.55702C82.285 12.3434 82.2814 12.8179 82.2339 13.2831C81.9053 16.4981 80.1194 18.3049 77.1073 18.4695C74.2357 18.6264 72.3037 17.1294 71.9415 14.4669C71.873 13.9633 71.8726 13.9224 71.8726 7.15734L71.8725 0.574957H69.5231C67.594 0.574957 67.1722 0.578948 67.1652 0.597262ZM10.964 4.59335C6.62378 4.93489 3.83273 8.9598 4.92811 13.2976C6.65283 20.1276 16.7465 19.8785 18.1546 12.9712C18.9959 8.84386 16.4303 5.13548 12.3798 4.62417C12.1768 4.59855 11.1751 4.57674 10.964 4.59335ZM35.1985 4.59335C30.8578 4.93494 28.071 8.96127 29.1681 13.3061C30.7813 19.6948 40.1111 20.037 42.1778 13.7832C43.5963 9.49131 40.9706 5.16837 36.6146 4.62395C36.4114 4.59855 35.408 4.57688 35.1985 4.59335Z" fill="black"/>
</g>
<defs>
<clipPath id="clip0_1_9">
<rect width="87" height="37" fill="white"/>
</clipPath>
</defs>
</svg>

