<svg width="193" height="46" viewBox="0 0 193 46" fill="none" xmlns="http://www.w3.org/2000/svg">
<g clip-path="url(#clip0_0_1)">
<path fill-rule="evenodd" clip-rule="evenodd" d="M86.983 20.4399C86.983 26.4187 86.9869 31.3066 86.9917 31.3018C87.003 31.2905 87.003 9.58926 86.9917 9.57796C86.9869 9.57321 86.983 14.4611 86.983 20.4399ZM82.2768 15.6204C82.2768 18.9408 82.2787 20.2966 82.2811 18.6333C82.2835 16.9701 82.2835 14.2534 82.2811 12.5963C82.2787 10.9392 82.2768 12.3001 82.2768 15.6204ZM82.2765 29.9266C82.2765 30.6893 82.2786 30.9988 82.2811 30.6145C82.2836 30.2301 82.2836 29.6061 82.2811 29.2278C82.2786 28.8495 82.2765 29.164 82.2765 29.9266ZM0.00561162 34.9448C0.163975 40.569 4.35046 45.2055 9.8871 45.8885C14.3283 46.4363 18.234 44.8061 20.8423 41.3158C22.2146 39.4795 22.9251 37.3766 23.0065 34.911L23.0183 34.5516H20.6585H18.2988V34.6745C18.2988 38.0661 15.8719 40.8902 12.5642 41.3478C8.36606 41.9286 4.86069 39.0369 4.72021 34.8772L4.70922 34.5516H2.35188H-0.00546265L0.00561162 34.9448Z" fill="#65B2F0"/>
<path fill-rule="evenodd" clip-rule="evenodd" d="M10.9132 9.02831C5.22006 9.30855 0.703117 13.484 0.0775817 19.0448C-0.817687 27.0034 5.98639 33.1859 13.9403 31.6412C18.4317 30.7689 22.0677 27.0434 22.8341 22.5283C24.102 15.0591 18.4491 8.65738 10.9132 9.02831ZM35.0035 9.03572C29.5559 9.34224 25.1276 13.3546 24.3625 18.6774C23.1901 26.8335 30.1805 33.2978 38.3444 31.607C42.6622 30.7127 46.2156 27.0877 47.035 22.7415C48.4667 15.1467 42.7211 8.60149 35.0035 9.03572ZM56.1515 9.02741C51.306 9.30383 48.2507 12.4403 48.7983 16.5759C49.1822 19.4751 51.2234 21.0433 56.3126 22.3487C59.286 23.1114 60.4741 23.9247 60.4659 25.1917C60.4554 26.7947 59.0959 27.6266 56.5924 27.562C54.2835 27.5023 52.7904 26.5608 52.0288 24.6844C51.976 24.5542 51.9294 24.4477 51.9254 24.4477C51.8968 24.4477 47.8924 26.7826 47.8924 26.7993C47.8924 26.8109 47.9601 26.9562 48.0427 27.1222C49.5623 30.1716 52.6758 31.8627 56.7705 31.8627C62.3715 31.8627 65.9148 28.5683 65.1895 24.0349C64.7379 21.2117 62.4716 19.4826 57.8728 18.4524C56.5946 18.1661 55.0583 17.5432 54.3884 17.0397C52.8657 15.8952 53.4612 13.931 55.4856 13.4204C57.674 12.8684 59.7876 13.7182 60.7078 15.52C60.7715 15.6447 60.8284 15.745 60.8341 15.7428C60.8753 15.727 64.7825 13.5384 64.783 13.5309C64.7864 13.4785 64.3008 12.723 64.07 12.4217C62.5573 10.4462 60.3614 9.29859 57.6184 9.04996C57.416 9.03161 56.3619 9.01542 56.1515 9.02741ZM67.1652 9.59726C67.1459 9.64742 67.1693 23.5495 67.1891 23.7797C67.6284 28.8924 70.7024 31.8629 75.5539 31.8629C78.5269 31.8629 80.743 30.7976 82.185 28.6753L82.2769 28.54L82.2812 29.9224L82.2856 31.3048H84.6343H86.983V20.4399V9.57496H84.6342H82.2854L82.2852 15.557C82.285 21.3434 82.2814 21.8179 82.2339 22.2831C81.9053 25.4981 80.1194 27.3049 77.1073 27.4695C74.2357 27.6264 72.3037 26.1294 71.9415 23.4669C71.873 22.9633 71.8726 22.9224 71.8726 16.1573L71.8725 9.57496H69.5231C67.594 9.57496 67.1722 9.57895 67.1652 9.59726ZM10.964 13.5933C6.62378 13.9349 3.83273 17.9598 4.92811 22.2976C6.65283 29.1276 16.7465 28.8785 18.1546 21.9712C18.9959 17.8439 16.4303 14.1355 12.3798 13.6242C12.1768 13.5986 11.1751 13.5767 10.964 13.5933ZM35.1985 13.5933C30.8578 13.9349 28.071 17.9613 29.1681 22.3061C30.7813 28.6948 40.1111 29.037 42.1778 22.7832C43.5963 18.4913 40.9706 14.1684 36.6146 13.624C36.4114 13.5986 35.408 13.5769 35.1985 13.5933Z" fill="#1C1B1F"/>
</g>
<path d="M111.945 9.60001V14.1448H106.527V24.6328C106.527 25.5359 106.731 26.1914 107.138 26.5993C107.546 26.978 108.144 27.1965 108.93 27.2548C109.746 27.2839 110.751 27.2694 111.945 27.2111V31.45C108.333 31.887 105.74 31.5811 104.167 30.5323C102.594 29.4544 101.807 27.4879 101.807 24.6328V14.1448H97.7866V9.60001H101.807V4.88041L106.527 3.48201V9.60001H111.945ZM130.887 12.7027V9.60001H135.607V31.45H130.887V28.3036C129.11 30.7799 126.561 32.0181 123.239 32.0181C120.239 32.0181 117.675 30.911 115.548 28.6969C113.422 26.4828 112.358 23.7588 112.358 20.525C112.358 17.2912 113.422 14.5672 115.548 12.3531C117.675 10.139 120.239 9.03191 123.239 9.03191C126.561 9.03191 129.11 10.2555 130.887 12.7027ZM119.044 25.5505C120.355 26.8615 122.001 27.517 123.982 27.517C125.963 27.517 127.609 26.8615 128.92 25.5505C130.231 24.2104 130.887 22.5352 130.887 20.525C130.887 18.5148 130.231 16.8542 128.92 15.5432C127.609 14.2031 125.963 13.533 123.982 13.533C122.001 13.533 120.355 14.2031 119.044 15.5432C117.733 16.8542 117.078 18.5148 117.078 20.525C117.078 22.5061 117.733 24.1812 119.044 25.5505ZM143.471 15.6306C143.471 16.3007 143.82 16.8542 144.519 17.2912C145.219 17.6991 146.238 18.0924 147.578 18.4711C148.598 18.7042 149.487 18.9518 150.244 19.214C151.001 19.4762 151.803 19.8695 152.648 20.3939C153.492 20.8892 154.133 21.5592 154.57 22.4041C155.036 23.2198 155.255 24.1812 155.226 25.2883C155.226 27.3859 154.41 29.0319 152.779 30.2264C151.147 31.4209 149.122 32.0181 146.704 32.0181C144.548 32.0181 142.698 31.5665 141.154 30.6634C139.61 29.7603 138.489 28.5075 137.79 26.9052L141.854 24.5454C142.582 26.643 144.199 27.6918 146.704 27.6918C149.181 27.6918 150.419 26.8761 150.419 25.2446C150.419 24.0501 149.035 23.1179 146.267 22.4478C145.219 22.1856 144.33 21.9234 143.602 21.6612C142.902 21.399 142.116 21.0203 141.242 20.525C140.397 20.0297 139.741 19.3742 139.275 18.5585C138.838 17.7428 138.634 16.7959 138.664 15.718C138.664 13.7078 139.421 12.0909 140.936 10.8673C142.48 9.64371 144.388 9.03191 146.661 9.03191C148.467 9.03191 150.069 9.43978 151.468 10.2555C152.895 11.0421 153.988 12.1492 154.745 13.5767L150.768 15.8054C150.04 14.1448 148.671 13.3145 146.661 13.3145C145.728 13.3145 144.956 13.5184 144.345 13.9263C143.762 14.3342 143.471 14.9023 143.471 15.6306ZM166.722 20.3065L176.686 31.45H171.049L162.09 21.3553V31.45H157.371V0.86001H162.09V19.2577L170.568 9.60001H176.336L166.722 20.3065ZM180.815 15.6306C180.815 16.3007 181.165 16.8542 181.864 17.2912C182.563 17.6991 183.583 18.0924 184.923 18.4711C185.943 18.7042 186.831 18.9518 187.589 19.214C188.346 19.4762 189.147 19.8695 189.992 20.3939C190.837 20.8892 191.478 21.5592 191.915 22.4041C192.381 23.2198 192.6 24.1812 192.571 25.2883C192.571 27.3859 191.755 29.0319 190.123 30.2264C188.492 31.4209 186.467 32.0181 184.049 32.0181C181.893 32.0181 180.043 31.5665 178.499 30.6634C176.955 29.7603 175.833 28.5075 175.134 26.9052L179.198 24.5454C179.927 26.643 181.544 27.6918 184.049 27.6918C186.525 27.6918 187.764 26.8761 187.764 25.2446C187.764 24.0501 186.38 23.1179 183.612 22.4478C182.563 22.1856 181.675 21.9234 180.946 21.6612C180.247 21.399 179.461 21.0203 178.587 20.525C177.742 20.0297 177.086 19.3742 176.62 18.5585C176.183 17.7428 175.979 16.7959 176.008 15.718C176.008 13.7078 176.766 12.0909 178.281 10.8673C179.825 9.64371 181.733 9.03191 184.005 9.03191C185.812 9.03191 187.414 9.43978 188.812 10.2555C190.24 11.0421 191.332 12.1492 192.09 13.5767L188.113 15.8054C187.385 14.1448 186.016 13.3145 184.005 13.3145C183.073 13.3145 182.301 13.5184 181.689 13.9263C181.107 14.3342 180.815 14.9023 180.815 15.6306Z" fill="#65B2F0"/>
<defs>
<clipPath id="clip0_0_1">
<rect width="87" height="37" fill="white" transform="translate(0 9)"/>
</clipPath>
</defs>
</svg>
