<svg width="270" height="70" viewBox="0 0 194 46" fill="none" xmlns="http://www.w3.org/2000/svg">
<g clip-path="url(#clip0_0_1)">
<path fill-rule="evenodd" clip-rule="evenodd" d="M86.983 20.4399C86.983 26.4187 86.9869 31.3066 86.9917 31.3018C87.003 31.2905 87.003 9.58926 86.9917 9.57796C86.9869 9.57321 86.983 14.4611 86.983 20.4399ZM82.2768 15.6204C82.2768 18.9408 82.2787 20.2966 82.2811 18.6333C82.2835 16.9701 82.2835 14.2534 82.2811 12.5963C82.2787 10.9392 82.2768 12.3001 82.2768 15.6204ZM82.2765 29.9266C82.2765 30.6893 82.2786 30.9988 82.2811 30.6145C82.2836 30.2301 82.2836 29.6061 82.2811 29.2278C82.2786 28.8495 82.2765 29.164 82.2765 29.9266ZM0.00561162 34.9448C0.163975 40.569 4.35046 45.2055 9.8871 45.8885C14.3283 46.4363 18.234 44.8061 20.8423 41.3158C22.2146 39.4795 22.9251 37.3766 23.0065 34.911L23.0183 34.5516H20.6585H18.2988V34.6745C18.2988 38.0661 15.8719 40.8902 12.5642 41.3478C8.36606 41.9286 4.86069 39.0369 4.72021 34.8772L4.70922 34.5516H2.35188H-0.00546265L0.00561162 34.9448Z" fill="#65B2F0"/>
<path fill-rule="evenodd" clip-rule="evenodd" d="M10.9132 9.02831C5.22006 9.30855 0.703117 13.484 0.0775817 19.0448C-0.817687 27.0034 5.98639 33.1859 13.9403 31.6412C18.4317 30.7689 22.0677 27.0434 22.8341 22.5283C24.102 15.0591 18.4491 8.65738 10.9132 9.02831ZM35.0035 9.03572C29.5559 9.34224 25.1276 13.3546 24.3625 18.6774C23.1901 26.8335 30.1805 33.2978 38.3444 31.607C42.6622 30.7127 46.2156 27.0877 47.035 22.7415C48.4667 15.1467 42.7211 8.60149 35.0035 9.03572ZM56.1515 9.02741C51.306 9.30383 48.2507 12.4403 48.7983 16.5759C49.1822 19.4751 51.2234 21.0433 56.3126 22.3487C59.286 23.1114 60.4741 23.9247 60.4659 25.1917C60.4554 26.7947 59.0959 27.6266 56.5924 27.562C54.2835 27.5023 52.7904 26.5608 52.0288 24.6844C51.976 24.5542 51.9294 24.4477 51.9254 24.4477C51.8968 24.4477 47.8924 26.7826 47.8924 26.7993C47.8924 26.8109 47.9601 26.9562 48.0427 27.1222C49.5623 30.1716 52.6758 31.8627 56.7705 31.8627C62.3715 31.8627 65.9148 28.5683 65.1895 24.0349C64.7379 21.2117 62.4716 19.4826 57.8728 18.4524C56.5946 18.1661 55.0583 17.5432 54.3884 17.0397C52.8657 15.8952 53.4612 13.931 55.4856 13.4204C57.674 12.8684 59.7876 13.7182 60.7078 15.52C60.7715 15.6447 60.8284 15.745 60.8341 15.7428C60.8753 15.727 64.7825 13.5384 64.783 13.5309C64.7864 13.4785 64.3008 12.723 64.07 12.4217C62.5573 10.4462 60.3614 9.29859 57.6184 9.04996C57.416 9.03161 56.3619 9.01542 56.1515 9.02741ZM67.1652 9.59726C67.1459 9.64742 67.1693 23.5495 67.1891 23.7797C67.6284 28.8924 70.7024 31.8629 75.5539 31.8629C78.5269 31.8629 80.743 30.7976 82.185 28.6753L82.2769 28.54L82.2812 29.9224L82.2856 31.3048H84.6343H86.983V20.4399V9.57496H84.6342H82.2854L82.2852 15.557C82.285 21.3434 82.2814 21.8179 82.2339 22.2831C81.9053 25.4981 80.1194 27.3049 77.1073 27.4695C74.2357 27.6264 72.3037 26.1294 71.9415 23.4669C71.873 22.9633 71.8726 22.9224 71.8726 16.1573L71.8725 9.57496H69.5231C67.594 9.57496 67.1722 9.57895 67.1652 9.59726ZM10.964 13.5933C6.62378 13.9349 3.83273 17.9598 4.92811 22.2976C6.65283 29.1276 16.7465 28.8785 18.1546 21.9712C18.9959 17.8439 16.4303 14.1355 12.3798 13.6242C12.1768 13.5986 11.1751 13.5767 10.964 13.5933ZM35.1985 13.5933C30.8578 13.9349 28.071 17.9613 29.1681 22.3061C30.7813 28.6948 40.1111 29.037 42.1778 22.7832C43.5963 18.4913 40.9706 14.1684 36.6146 13.624C36.4114 13.5986 35.408 13.5769 35.1985 13.5933Z" fill="black"/>
</g>
<path d="M112.077 9.60001V15.0188H107.138V24.1084C107.138 24.8659 107.328 25.4194 107.707 25.769C108.085 26.1186 108.639 26.3225 109.367 26.3808C110.095 26.4099 110.999 26.3954 112.077 26.3371V31.45C108.26 31.887 105.536 31.5374 103.905 30.4012C102.302 29.2359 101.501 27.1383 101.501 24.1084V15.0188H97.6992V9.60001H101.501V5.18631L107.138 3.48201V9.60001H112.077ZM130.226 12.1783V9.60001H135.864V31.45H130.226V28.8717C128.537 30.9984 126.162 32.0618 123.103 32.0618C120.19 32.0618 117.684 30.9547 115.587 28.7406C113.518 26.4973 112.484 23.7588 112.484 20.525C112.484 17.3203 113.518 14.5964 115.587 12.3531C117.684 10.1098 120.19 8.98821 123.103 8.98821C126.162 8.98821 128.537 10.0516 130.226 12.1783ZM119.826 24.9824C120.962 26.1186 122.404 26.6867 124.152 26.6867C125.9 26.6867 127.342 26.1186 128.478 24.9824C129.644 23.8171 130.226 22.3313 130.226 20.525C130.226 18.7187 129.644 17.2475 128.478 16.1113C127.342 14.946 125.9 14.3633 124.152 14.3633C122.404 14.3633 120.962 14.946 119.826 16.1113C118.69 17.2475 118.121 18.7187 118.121 20.525C118.121 22.3313 118.69 23.8171 119.826 24.9824ZM144.257 15.8054C144.257 16.7377 145.583 17.5388 148.234 18.2089C149.166 18.4128 150.011 18.6605 150.768 18.9518C151.526 19.214 152.283 19.6073 153.041 20.1317C153.827 20.627 154.439 21.297 154.876 22.1419C155.313 22.9868 155.532 23.9627 155.532 25.0698C155.532 27.3131 154.687 29.0465 152.997 30.2701C151.307 31.4646 149.224 32.0618 146.748 32.0618C142.261 32.0618 139.202 30.3284 137.571 26.8615L142.465 24.1084C143.135 26.0021 144.563 26.9489 146.748 26.9489C148.758 26.9489 149.763 26.3225 149.763 25.0698C149.763 24.1375 148.438 23.3364 145.787 22.6663C144.796 22.4041 143.951 22.1419 143.252 21.8797C142.553 21.6175 141.795 21.2388 140.98 20.7435C140.164 20.2191 139.538 19.5636 139.101 18.777C138.693 17.9613 138.489 17.0144 138.489 15.9365C138.489 13.7806 139.275 12.0909 140.849 10.8673C142.451 9.61458 144.432 8.98821 146.792 8.98821C148.569 8.98821 150.186 9.39608 151.642 10.2118C153.099 10.9984 154.25 12.1346 155.095 13.6204L150.288 16.2424C149.589 14.7566 148.423 14.0137 146.792 14.0137C146.063 14.0137 145.452 14.1885 144.956 14.5381C144.49 14.8586 144.257 15.281 144.257 15.8054ZM168.509 20.3939L177.555 31.45H171L163.046 21.5301V31.45H157.409V0.86001H163.046V19.214L170.563 9.60001H177.293L168.509 20.3939ZM182.37 15.8054C182.37 16.7377 183.696 17.5388 186.347 18.2089C187.279 18.4128 188.124 18.6605 188.881 18.9518C189.639 19.214 190.396 19.6073 191.154 20.1317C191.94 20.627 192.552 21.297 192.989 22.1419C193.426 22.9868 193.645 23.9627 193.645 25.0698C193.645 27.3131 192.8 29.0465 191.11 30.2701C189.42 31.4646 187.337 32.0618 184.861 32.0618C180.374 32.0618 177.315 30.3284 175.684 26.8615L180.578 24.1084C181.248 26.0021 182.676 26.9489 184.861 26.9489C186.871 26.9489 187.876 26.3225 187.876 25.0698C187.876 24.1375 186.551 23.3364 183.9 22.6663C182.909 22.4041 182.064 22.1419 181.365 21.8797C180.666 21.6175 179.908 21.2388 179.093 20.7435C178.277 20.2191 177.65 19.5636 177.213 18.777C176.806 17.9613 176.602 17.0144 176.602 15.9365C176.602 13.7806 177.388 12.0909 178.961 10.8673C180.564 9.61458 182.545 8.98821 184.905 8.98821C186.682 8.98821 188.299 9.39608 189.755 10.2118C191.212 10.9984 192.363 12.1346 193.208 13.6204L188.401 16.2424C187.701 14.7566 186.536 14.0137 184.905 14.0137C184.176 14.0137 183.564 14.1885 183.069 14.5381C182.603 14.8586 182.37 15.281 182.37 15.8054Z" fill="#65B2F0"/>
<defs>
<clipPath id="clip0_0_1">
<rect width="87" height="37" fill="white" transform="translate(0 9)"/>
</clipPath>
</defs>
</svg>
